<svg display="none"
xmlns="http://www.w3.org/2000/svg">
<symbol viewBox="0 0 23.101 23.101" id="facebook">
<g><path d="M8.258,4.458c0-0.144,0.02-0.455,0.06-0.931c0.043-0.477,0.223-0.976,0.546-1.5c0.32-0.522,0.839-0.991,1.561-1.406
                C11.144,0.208,12.183,0,13.539,0h3.82v4.163h-2.797c-0.277,0-0.535,0.104-0.768,0.309c-0.231,0.205-0.35,0.4-0.35,0.581v2.59h3.914
                c-0.041,0.507-0.086,1-0.138,1.476l-0.155,1.258c-0.062,0.425-0.125,0.819-0.187,1.182h-3.462v11.542H8.258V11.558H5.742V7.643
                h2.516V4.458z"/></g>
</symbol>


<symbol viewBox="0 0 512 512" id="insta">
<g><path d="M505,257c0,34.8-0.7,69.7,0.2,104.5c1.5,61.6-37.2,109.2-86.5,130.4c-19.8,8.5-40.6,13-62.1,13c-67.3,0.1-134.7,1-202-0.3   c-50.7-1-92.4-22.2-122.3-64c-15.7-22-23.2-47-23.2-74.1c0-71.7,0-143.3,0-215c0-58.5,28.5-99.4,79.1-126C110.2,14,134.1,9.1,159,9   c65.3,0,130.7-0.4,196,0.2c50.7,0.4,93,19.8,124.2,60.6c17.4,22.8,25.8,49,25.8,77.8C505,184,505,220.5,505,257z M46,257   c0,36.7,0,73.3,0,110c0,16.4,3.8,31.8,12.3,45.7c22.3,36.5,56,54.3,97.8,55c67.1,1,134.3,0.4,201.5,0.2c16.5,0,32.5-3.4,47.4-10.5   c40.6-19.4,63.3-50.3,63.1-96.7c-0.4-71-0.1-142-0.1-213c0-20.1-5.7-38.5-17.6-54.7c-23-31.1-54.8-46.4-92.8-46.8   c-67-0.8-134-0.3-201-0.2c-14.3,0-28.1,2.9-41.5,7.9c-36.8,13.7-71,48.4-69.4,99.5C46.9,188,46,222.5,46,257z"/><path d="M257.6,363c-64.5,0-116.5-51.4-116.6-115.4c-0.1-63,52.3-114.6,116.4-114.6c64.3-0.1,116.5,51.4,116.6,114.9   C374,311.3,321.9,362.9,257.6,363z M257.6,326c43.9,0,79.5-35.1,79.4-78.3c-0.1-42.8-35.7-77.8-79.4-77.8   c-43.9,0-79.7,34.9-79.7,78C178,291.1,213.7,326.1,257.6,326z"/><path d="M387.5,98c13.5,0,24.5,11.5,24.5,25.6c-0.1,14.1-11.2,25.5-24.7,25.4c-13.3-0.1-24.2-11.5-24.2-25.3   C363,109.6,374,98,387.5,98z"/></g>
</symbol>

<symbol viewBox="0 0 128 128" id="youtube">
<g><path d="M260.4,449c-57.1-1.8-111.4-3.2-165.7-5.3c-11.7-0.5-23.6-2.3-35-5c-21.4-5-36.2-17.9-43.8-39c-6.1-17-8.3-34.5-9.9-52.3   C2.5,305.6,2.5,263.8,4.2,222c1-23.6,1.6-47.4,7.9-70.3c3.8-13.7,8.4-27.1,19.5-37c11.7-10.5,25.4-16.8,41-17.5   c42.8-2.1,85.5-4.7,128.3-5.1c57.6-0.6,115.3,0.2,172.9,1.3c24.9,0.5,50,1.8,74.7,5c22.6,3,39.5,15.6,48.5,37.6   c6.9,16.9,9.5,34.6,11,52.6c3.9,45.1,4,90.2,1.8,135.3c-1.1,22.9-2.2,45.9-8.7,68.2c-7.4,25.6-23.1,42.5-49.3,48.3   c-10.2,2.2-20.8,3-31.2,3.4C366.2,445.7,311.9,447.4,260.4,449z M205.1,335.3c45.6-23.6,90.7-47,136.7-70.9   c-45.9-24-91-47.5-136.7-71.4C205.1,240.7,205.1,287.6,205.1,335.3z"/></g>
</symbol>

<symbol viewBox="0 0 48 48" id="Whatsapp">
<g><path id="WhatsApp" d="M90,43.841c0,24.213-19.779,43.841-44.182,43.841c-7.747,0-15.025-1.98-21.357-5.455L0,90l7.975-23.522
		c-4.023-6.606-6.34-14.354-6.34-22.637C1.635,19.628,21.416,0,45.818,0C70.223,0,90,19.628,90,43.841z M45.818,6.982
		c-20.484,0-37.146,16.535-37.146,36.859c0,8.065,2.629,15.534,7.076,21.61L11.107,79.14l14.275-4.537
		c5.865,3.851,12.891,6.097,20.437,6.097c20.481,0,37.146-16.533,37.146-36.857S66.301,6.982,45.818,6.982z M68.129,53.938
		c-0.273-0.447-0.994-0.717-2.076-1.254c-1.084-0.537-6.41-3.138-7.4-3.495c-0.993-0.358-1.717-0.538-2.438,0.537
		c-0.721,1.076-2.797,3.495-3.43,4.212c-0.632,0.719-1.263,0.809-2.347,0.271c-1.082-0.537-4.571-1.673-8.708-5.333
		c-3.219-2.848-5.393-6.364-6.025-7.441c-0.631-1.075-0.066-1.656,0.475-2.191c0.488-0.482,1.084-1.255,1.625-1.882
		c0.543-0.628,0.723-1.075,1.082-1.793c0.363-0.717,0.182-1.344-0.09-1.883c-0.27-0.537-2.438-5.825-3.34-7.977
		c-0.902-2.15-1.803-1.792-2.436-1.792c-0.631,0-1.354-0.09-2.076-0.09c-0.722,0-1.896,0.269-2.889,1.344
		c-0.992,1.076-3.789,3.676-3.789,8.963c0,5.288,3.879,10.397,4.422,11.113c0.541,0.716,7.49,11.92,18.5,16.223
		C58.2,65.771,58.2,64.336,60.186,64.156c1.984-0.179,6.406-2.599,7.312-5.107C68.398,56.537,68.398,54.386,68.129,53.938z"/>
</g>
</symbol>

<symbol viewBox="0 0 438.536 438.536" id="linkedin">
<g><path d="M414.41,24.123C398.333,8.042,378.963,0,356.315,0H82.228C59.58,0,40.21,8.042,24.126,24.123
		C8.045,40.207,0.003,59.576,0.003,82.225v274.084c0,22.647,8.042,42.018,24.123,58.102c16.084,16.084,35.454,24.126,58.102,24.126
		h274.084c22.648,0,42.018-8.042,58.095-24.126c16.084-16.084,24.126-35.454,24.126-58.102V82.225
		C438.532,59.576,430.49,40.204,414.41,24.123z M133.618,367.157H67.666V169.016h65.952V367.157z M127.626,132.332
		c-6.851,6.567-15.893,9.851-27.124,9.851h-0.288c-10.848,0-19.648-3.284-26.407-9.851c-6.76-6.567-10.138-14.703-10.138-24.41
		c0-9.897,3.476-18.083,10.421-24.556c6.95-6.471,15.942-9.708,26.98-9.708c11.039,0,19.89,3.237,26.553,9.708
		c6.661,6.473,10.088,14.659,10.277,24.556C137.899,117.625,134.477,125.761,127.626,132.332z M370.873,367.157h-65.952v-105.92
		c0-29.879-11.036-44.823-33.116-44.823c-8.374,0-15.42,2.331-21.128,6.995c-5.715,4.661-9.996,10.324-12.847,16.991
		c-1.335,3.422-1.999,8.75-1.999,15.981v110.775h-65.952c0.571-119.529,0.571-185.579,0-198.142h65.952v27.974
		c13.867-21.681,33.558-32.544,59.101-32.544c22.84,0,41.21,7.52,55.104,22.554c13.895,15.037,20.841,37.214,20.841,66.519v113.64
		H370.873z"/></g>
</symbol>
</svg>